<svg width="33" height="33" viewBox="0 0 33 33" fill="none" xmlns="http://www.w3.org/2000/svg">
<path d="M16.5 33C25.6127 33 33 25.6127 33 16.5C33 7.3873 25.6127 0 16.5 0C7.3873 0 0 7.3873 0 16.5C0 25.6127 7.3873 33 16.5 33Z" fill="#FC6F58"/>
<path d="M32.7841 19.1687L25.8518 12.2362L24.1198 12.7866L16.7731 5.64255L16.2153 12.5346L10.727 17.0419L6.89087 23.0342L16.8522 32.9956C24.898 32.827 31.5267 26.8996 32.7841 19.1687Z" fill="#F1543F"/>
<path d="M16.5 12.8333C16.3159 12.8333 16.1667 12.6841 16.1667 12.5V5.83332C16.1667 5.64918 16.3159 5.49997 16.5 5.49997C16.6841 5.49997 16.8334 5.64918 16.8334 5.83332V12.5C16.8334 12.6841 16.684 12.8333 16.5 12.8333Z" fill="white"/>
<path d="M16.5 5.49997C16.4873 5.49997 16.4753 5.50229 16.463 5.50377V12.8296C16.4753 12.831 16.4874 12.8334 16.5 12.8334C16.6841 12.8334 16.8334 12.6842 16.8334 12.5001V5.83345C16.8334 5.64924 16.684 5.49997 16.5 5.49997Z" fill="#E6F3FF"/>
<path d="M17.8703 12.8333H15.1295C14.8738 12.8333 14.6665 12.6261 14.6665 12.3704V11.463C14.6665 11.2073 14.8737 11.0001 15.1295 11.0001H17.8703C18.126 11.0001 18.3334 11.2073 18.3334 11.463V12.3704C18.3333 12.6261 18.126 12.8333 17.8703 12.8333Z" fill="#808183"/>
<path d="M17.8703 11H16.4629V12.8333H17.8703C18.126 12.8333 18.3334 12.6261 18.3334 12.3703V11.4629C18.3333 11.2072 18.126 11 17.8703 11Z" fill="#59595B"/>
<path d="M22.1341 14.5498V12.3943H10.8658V14.5498L6.49997 14.0041V22.1347C6.49997 22.9786 7.41211 23.6626 8.5372 23.6626C9.2683 23.6626 9.94331 23.3688 10.306 22.8927L14.6253 17.2236H18.3746L22.6939 22.8927C23.0566 23.3688 23.7316 23.6626 24.4627 23.6626C25.5878 23.6626 26.4999 22.9784 26.4999 22.1347V14.0041L22.1341 14.5498Z" fill="#CFDBE6"/>
<path d="M22.1341 14.5498V12.3943H16.463V17.2236H18.3746L22.6939 22.8927C23.0566 23.3686 23.7317 23.6626 24.4627 23.6626C25.5878 23.6626 26.4999 22.9784 26.4999 22.1347V14.0041L22.1341 14.5498Z" fill="#B8C9D9"/>
<path d="M11.0822 19.1689C13.6129 19.1689 15.6644 17.1174 15.6644 14.5867C15.6644 12.056 13.6129 10.0044 11.0822 10.0044C8.5515 10.0044 6.49997 12.056 6.49997 14.5867C6.49997 17.1174 8.5515 19.1689 11.0822 19.1689Z" fill="#E6F3FF"/>
<path d="M21.9178 19.1689C24.4485 19.1689 26.5 17.1174 26.5 14.5867C26.5 12.056 24.4485 10.0044 21.9178 10.0044C19.3871 10.0044 17.3356 12.056 17.3356 14.5867C17.3356 17.1174 19.3871 19.1689 21.9178 19.1689Z" fill="#CFDBE6"/>
<path d="M12.8649 13.8651H12.1848C11.9742 13.8651 11.8035 13.6944 11.8035 13.4838V12.8037C11.8035 12.5932 11.6329 12.4225 11.4223 12.4225H10.7422C10.5316 12.4225 10.361 12.5932 10.361 12.8037V13.4838C10.361 13.6944 10.1903 13.8651 9.97972 13.8651H9.29961C9.08904 13.8651 8.91837 14.0357 8.91837 14.2463V14.9264C8.91837 15.137 9.08904 15.3077 9.29961 15.3077H9.97972C10.1903 15.3077 10.361 15.4783 10.361 15.6889V16.369C10.361 16.5796 10.5316 16.7503 10.7422 16.7503H11.4223C11.6329 16.7503 11.8035 16.5796 11.8035 16.369V15.6889C11.8035 15.4783 11.9742 15.3077 12.1848 15.3077H12.8649C13.0755 15.3077 13.2461 15.137 13.2461 14.9264V14.2463C13.2461 14.0357 13.0754 13.8651 12.8649 13.8651Z" fill="#B8C9D9"/>
<path d="M23.0789 14.3631C23.5973 14.3631 24.0176 13.9428 24.0176 13.4244C24.0176 12.906 23.5973 12.4857 23.0789 12.4857C22.5604 12.4857 22.1402 12.906 22.1402 13.4244C22.1402 13.9428 22.5604 14.3631 23.0789 14.3631Z" fill="#4CDBC4"/>
<path d="M20.7567 16.6865C21.2751 16.6865 21.6954 16.2662 21.6954 15.7478C21.6954 15.2294 21.2751 14.8091 20.7567 14.8091C20.2383 14.8091 19.818 15.2294 19.818 15.7478C19.818 16.2662 20.2383 16.6865 20.7567 16.6865Z" fill="#B8C9D9"/>
<path d="M23.0789 16.6865C23.5973 16.6865 24.0176 16.2662 24.0176 15.7478C24.0176 15.2294 23.5973 14.8091 23.0789 14.8091C22.5604 14.8091 22.1402 15.2294 22.1402 15.7478C22.1402 16.2662 22.5604 16.6865 23.0789 16.6865Z" fill="#FD8469"/>
<path d="M20.7567 14.3631C21.2751 14.3631 21.6954 13.9428 21.6954 13.4244C21.6954 12.906 21.2751 12.4857 20.7567 12.4857C20.2383 12.4857 19.818 12.906 19.818 13.4244C19.818 13.9428 20.2383 14.3631 20.7567 14.3631Z" fill="#FF80AA"/>
</svg>
